<svg xmlns="http://www.w3.org/2000/svg" version="1.1" xmlns:xlink="http://www.w3.org/1999/xlink" xmlns:svgjs="http://svgjs.dev/svgjs" width="128" height="128" viewBox="0 0 128 128"><g transform="matrix(0.8046875,0,0,0.8046875,12.779426401380206,13.511136267590665)"><svg viewBox="0 0 95 93" data-background-color="#124e66" preserveAspectRatio="xMidYMid meet" height="125" width="128" xmlns="http://www.w3.org/2000/svg" xmlns:xlink="http://www.w3.org/1999/xlink"><g id="tight-bounds" transform="matrix(1,0,0,1,-0.23849087041716643,0.18112107732821414)"><svg viewBox="0 0 95.481 92.63775784534356" height="92.63775784534356" width="95.481"><g><svg viewBox="0 0 95.481 92.63775784534356" height="92.63775784534356" width="95.481"><g><svg viewBox="0 0 95.481 92.63775784534356" height="92.63775784534356" width="95.481"><g id="textblocktransform"><svg viewBox="0 0 95.481 92.63775784534356" height="92.63775784534356" width="95.481" id="textblock"><g><svg viewBox="0 0 95.481 92.63775784534356" height="92.63775784534356" width="95.481"><g><svg viewBox="0 0 95.481 92.63775784534356" height="92.63775784534356" width="95.481"><g><svg xmlns="http://www.w3.org/2000/svg" xmlns:xlink="http://www.w3.org/1999/xlink" version="1.1" x="0" y="0" viewBox="4.999970703964102 6.339 90.0000292960359 87.32000000000001" enable-background="new 0 0 100 100" xml:space="preserve" height="92.63775784534356" width="95.481" class="icon-icon-0" data-fill-palette-color="accent" id="icon-0"><g fill="#748d92" data-fill-palette-color="accent"><path d="M94.973 71.267H94.976L95 71.21z" fill="#000000" data-fill-palette-color="accent"></path><path d="M76.963 46.598L64.708 45.816 61.58 34.604 68.098 25.478 66.794 20.371 72.806 13.6C72.557 13.435 72.291 13.294 72.039 13.134L65.839 15.523 68.013 10.873A43.3 43.3 0 0 0 58.075 7.355L53.672 11.311S50.369 10.876 48.675 10.616C47.669 10.461 47.858 8.175 48.177 6.339A44 44 0 0 0 43.848 6.595L43.59 7.227H40.983L40.459 7.112A43.3 43.3 0 0 0 29.184 10.947L30.815 12.442 40.462 9.574 43.591 15.523 26.38 27.948 24.555 31.727 20.644 29.128 15.429 31.727 15.168 34.864 17.515 36.168 20.644 35.125 25.859 42.397 31.074 40.34 41.895 45.424 51.803 53.768 47.762 63.484 38.115 77.103V84.101L33.422 81.712 30.554 61.72 24.557 54.419V44.511L16.213 38.514 9.954 36.69 8.48 32.888A43.5 43.5 0 0 0 5 49.987C5 71.829 21.051 89.872 41.99 93.096L45.327 87.793 47.716 93.611C48.037 93.618 48.35 93.659 48.673 93.659 65.289 93.659 79.734 84.378 87.116 70.719H81.917zM29.77 36.951H27.88L24.686 33.822 28.467 34.474H31.074z" fill="#000000" data-fill-palette-color="accent"></path><path d="M75.79 24.106L78.984 27.948 85.955 27.325A44 44 0 0 0 81.512 21.259L81.005 24.175 75.138 20.264 70.314 24.175z" fill="#000000" data-fill-palette-color="accent"></path></g></svg></g></svg></g></svg></g></svg></g></svg></g><g></g></svg></g><defs></defs></svg><rect width="95.481" height="92.63775784534356" fill="none" stroke="none" visibility="hidden"></rect></g></svg></g></svg>